<svg id="Layer_1" data-name="Layer 1" xmlns="http://www.w3.org/2000/svg" viewBox="0 0 288 288"><title>Artboard 1</title><g id="lighting"><rect x="94" y="104" width="80" height="80" fill="#bbcad0"/><path d="M84,174a10,10,0,0,0,20,0V114a10,10,0,0,0-20,0Z" fill="#d1dbe0"/><g opacity="0.1" style="isolation:isolate"><path d="M96,167.667V134L84,122v50h7.667A4.333,4.333,0,0,0,96,167.667Z"/></g><path d="M164,174a10,10,0,0,0,20,0V114a10,10,0,0,0-20,0Z" fill="#d1dbe0"/><g opacity="0.1" style="isolation:isolate"><rect x="168" y="136" width="16" height="20"/></g><polygon points="235 208 233 208 233 175 203 175 203 111 233 111 233 80 235 80 235 113 205 113 205 173 235 173 235 208" fill="#dadddf"/><path d="M180,114a6,6,0,0,0-12,0v60a6,6,0,0,0,12,0Z" fill="#46575e"/><rect x="180" y="144" width="24" height="2" fill="#dadddf"/><g opacity="0.05" style="isolation:isolate"><rect x="173.601" y="143" width="0.028" height="2"/></g><g opacity="0.05" style="isolation:isolate"><rect x="173.601" y="151.004" width="0.028" height="2"/></g><path d="M168,134h16a2.006,2.006,0,0,1,2,2v16a2.006,2.006,0,0,1-2,2H168Z" fill="#f33"/><g opacity="0.1" style="isolation:isolate"><rect x="168" y="134" width="2" height="20"/></g><rect x="224" y="102" width="20" height="20" rx="2" ry="2" fill="#f33"/><rect x="224" y="70" width="20" height="20" rx="2" ry="2" fill="#46575e"/><rect x="194" y="102" width="20" height="20" rx="2" ry="2" fill="#8da6b1"/><rect x="194" y="164" width="20" height="20" rx="2" ry="2" fill="#8da6b1"/><rect x="224" y="198" width="20" height="20" rx="2" ry="2" fill="#8da6b1"/><circle cx="134" cy="144" r="20" fill="#99afb9"/><g opacity="0.05" style="isolation:isolate"><path d="M134,126a19.983,19.983,0,0,1,19.949,19c.017-.333.051-.662.051-1a20,20,0,0,0-40,0c0,.338.034.667.051,1A19.983,19.983,0,0,1,134,126Z"/></g><g opacity="0.05" style="isolation:isolate"><path d="M147.141,142.877l-2.914-.416a1.011,1.011,0,0,1-.805-.689,9.952,9.952,0,0,0-.478-1.15,1.009,1.009,0,0,1,.082-1.057l1.767-2.357a1,1,0,0,0-.093-1.308l-1.6-1.6a1,1,0,0,0-1.308-.093l-2.356,1.767a1.009,1.009,0,0,1-1.057.082,9.967,9.967,0,0,0-1.151-.478,1.009,1.009,0,0,1-.688-.805l-.416-2.915a1,1,0,0,0-.99-.858h-2.267a1,1,0,0,0-.99.858l-.416,2.915a1.009,1.009,0,0,1-.688.805,9.967,9.967,0,0,0-1.151.478,1.009,1.009,0,0,1-1.057-.082l-2.357-1.767a1,1,0,0,0-1.308.093l-1.6,1.6a1,1,0,0,0-.093,1.307l1.767,2.357a1.009,1.009,0,0,1,.082,1.057,9.952,9.952,0,0,0-.478,1.15,1.011,1.011,0,0,1-.805.689l-2.914.416a1,1,0,0,0-.859.99v2.266a1,1,0,0,0,.859.99l2.914.416a1.011,1.011,0,0,1,.805.689,9.952,9.952,0,0,0,.478,1.15,1.009,1.009,0,0,1-.082,1.057l-1.767,2.357a1,1,0,0,0,.093,1.309l1.6,1.6a1,1,0,0,0,1.307.093l2.357-1.767a1.009,1.009,0,0,1,1.057-.082,9.967,9.967,0,0,0,1.151.478,1.009,1.009,0,0,1,.688.805l.416,2.915a1,1,0,0,0,.99.858h2.266a1,1,0,0,0,.99-.858l.416-2.915a1.009,1.009,0,0,1,.688-.805,9.967,9.967,0,0,0,1.151-.478,1.009,1.009,0,0,1,1.057.082l2.356,1.767a1,1,0,0,0,1.31-.093l1.6-1.6a1,1,0,0,0,.093-1.307l-1.767-2.357a1.009,1.009,0,0,1-.082-1.057,9.952,9.952,0,0,0,.478-1.15,1.011,1.011,0,0,1,.805-.689l2.914-.416a1,1,0,0,0,.859-.99v-2.267A1,1,0,0,0,147.141,142.877ZM134,149a4,4,0,1,1,4-4A4,4,0,0,1,134,149Z"/></g><path d="M147.141,141.877l-2.914-.416a1.011,1.011,0,0,1-.805-.689,9.952,9.952,0,0,0-.478-1.15,1.009,1.009,0,0,1,.082-1.057l1.767-2.357a1,1,0,0,0-.093-1.308l-1.6-1.6a1,1,0,0,0-1.308-.093l-2.356,1.767a1.009,1.009,0,0,1-1.057.082,9.967,9.967,0,0,0-1.151-.478,1.009,1.009,0,0,1-.688-.805l-.416-2.915a1,1,0,0,0-.99-.858h-2.267a1,1,0,0,0-.99.858l-.416,2.915a1.009,1.009,0,0,1-.688.805,9.967,9.967,0,0,0-1.151.478,1.009,1.009,0,0,1-1.057-.082l-2.357-1.767a1,1,0,0,0-1.308.093l-1.6,1.6a1,1,0,0,0-.093,1.307l1.767,2.357a1.009,1.009,0,0,1,.082,1.057,9.952,9.952,0,0,0-.478,1.15,1.011,1.011,0,0,1-.805.689l-2.914.416a1,1,0,0,0-.859.99v2.266a1,1,0,0,0,.859.99l2.914.416a1.011,1.011,0,0,1,.805.689,9.952,9.952,0,0,0,.478,1.15,1.009,1.009,0,0,1-.082,1.057l-1.767,2.357a1,1,0,0,0,.093,1.309l1.6,1.6a1,1,0,0,0,1.307.093l2.357-1.767a1.009,1.009,0,0,1,1.057-.082,9.967,9.967,0,0,0,1.151.478,1.009,1.009,0,0,1,.688.805l.416,2.915a1,1,0,0,0,.99.858h2.266a1,1,0,0,0,.99-.858l.416-2.915a1.009,1.009,0,0,1,.688-.805,9.967,9.967,0,0,0,1.151-.478,1.009,1.009,0,0,1,1.057.082l2.356,1.767a1,1,0,0,0,1.31-.093l1.6-1.6a1,1,0,0,0,.093-1.307l-1.767-2.357a1.009,1.009,0,0,1-.082-1.057,9.952,9.952,0,0,0,.478-1.15,1.011,1.011,0,0,1,.805-.689l2.914-.416a1,1,0,0,0,.859-.99v-2.267A1,1,0,0,0,147.141,141.877ZM134,148a4,4,0,1,1,4-4A4,4,0,0,1,134,148Z" fill="#f3f6f7"/><path d="M100,114a6,6,0,0,0-12,0v60a6,6,0,0,0,12,0Z" fill="#46575e"/><path d="M92,118H48.333A4.333,4.333,0,0,0,44,122.333v43.334A4.333,4.333,0,0,0,48.333,170H91.667A4.333,4.333,0,0,0,96,165.667V122A4,4,0,0,0,92,118Z" fill="#f33"/><g opacity="0.1"><g style="isolation:isolate"><path d="M57.16,147.977a2.26,2.26,0,0,0,.677.81,2.919,2.919,0,0,0,.991.46,4.554,4.554,0,0,0,1.177.149,5.968,5.968,0,0,0,.883-.069,3.043,3.043,0,0,0,.883-.27,1.938,1.938,0,0,0,.687-.55,1.4,1.4,0,0,0,.274-.89,1.264,1.264,0,0,0-.362-.939,2.889,2.889,0,0,0-.952-.6,9.364,9.364,0,0,0-1.335-.42q-.745-.18-1.51-.4a13.312,13.312,0,0,1-1.531-.49,5.22,5.22,0,0,1-1.334-.75,3.389,3.389,0,0,1-1.314-2.82,3.791,3.791,0,0,1,.461-1.91,4.216,4.216,0,0,1,1.207-1.35,5.224,5.224,0,0,1,1.687-.8,7.06,7.06,0,0,1,1.883-.26,8.74,8.74,0,0,1,2.11.25,5.227,5.227,0,0,1,1.8.81,4.087,4.087,0,0,1,1.246,1.43,4.459,4.459,0,0,1,.461,2.11H62.262a2.582,2.582,0,0,0-.265-1.06,1.765,1.765,0,0,0-.6-.66,2.514,2.514,0,0,0-.853-.34,5.207,5.207,0,0,0-1.05-.1,3.561,3.561,0,0,0-.745.08,1.983,1.983,0,0,0-.677.28,1.73,1.73,0,0,0-.5.5,1.36,1.36,0,0,0-.2.76,1.3,1.3,0,0,0,.157.68,1.4,1.4,0,0,0,.618.48,7.677,7.677,0,0,0,1.275.44q.814.22,2.129.56.393.079,1.089.29a5.171,5.171,0,0,1,1.383.67,4.221,4.221,0,0,1,1.187,1.23,3.551,3.551,0,0,1,.5,1.97,4.442,4.442,0,0,1-.373,1.82,3.94,3.94,0,0,1-1.109,1.45,5.287,5.287,0,0,1-1.824.95,8.5,8.5,0,0,1-2.521.339,8.665,8.665,0,0,1-2.247-.289,5.6,5.6,0,0,1-1.923-.91,4.459,4.459,0,0,1-1.324-1.58,4.8,4.8,0,0,1-.471-2.28h2.982A2.658,2.658,0,0,0,57.16,147.977Z"/><path d="M78.192,151a6.588,6.588,0,0,1-3.394.819,7.068,7.068,0,0,1-2.894-.569,6.212,6.212,0,0,1-2.168-1.569,6.984,6.984,0,0,1-1.354-2.351,8.77,8.77,0,0,1-.47-2.91,9.079,9.079,0,0,1,.47-2.97,7.167,7.167,0,0,1,1.354-2.39,6.2,6.2,0,0,1,2.168-1.6,7.535,7.535,0,0,1,5.8,0,6.228,6.228,0,0,1,2.158,1.6,7.167,7.167,0,0,1,1.354,2.39,9.079,9.079,0,0,1,.471,2.97,8.675,8.675,0,0,1-.471,2.9,7.225,7.225,0,0,1-1.354,2.362l1.746,1.619-1.432,1.519Zm-.451-3.3a4.339,4.339,0,0,0,.628-1.34,6.936,6.936,0,0,0,.235-1.94,7.928,7.928,0,0,0-.206-1.82,4.864,4.864,0,0,0-.657-1.57,3.365,3.365,0,0,0-1.177-1.1,4.013,4.013,0,0,0-3.532,0,3.36,3.36,0,0,0-1.177,1.1,4.838,4.838,0,0,0-.657,1.567,7.943,7.943,0,0,0-.206,1.816,7.383,7.383,0,0,0,.206,1.746,4.742,4.742,0,0,0,.657,1.527,3.388,3.388,0,0,0,1.177,1.088,3.545,3.545,0,0,0,1.766.41,5.721,5.721,0,0,0,.746-.037,1.768,1.768,0,0,0,.49-.144l-1.314-1.22,1.432-1.56Z"/><path d="M87.846,137.217v11.64h6.827v2.64H84.766v-14.28Z"/></g></g><g style="isolation:isolate"><path d="M57.16,146.977a2.26,2.26,0,0,0,.677.81,2.919,2.919,0,0,0,.991.46,4.554,4.554,0,0,0,1.177.149,5.968,5.968,0,0,0,.883-.069,3.043,3.043,0,0,0,.883-.27,1.938,1.938,0,0,0,.687-.55,1.4,1.4,0,0,0,.274-.89,1.264,1.264,0,0,0-.362-.939,2.889,2.889,0,0,0-.952-.6,9.364,9.364,0,0,0-1.335-.42q-.745-.18-1.51-.4a13.312,13.312,0,0,1-1.531-.49,5.22,5.22,0,0,1-1.334-.75,3.389,3.389,0,0,1-1.314-2.82,3.791,3.791,0,0,1,.461-1.91,4.216,4.216,0,0,1,1.207-1.35,5.224,5.224,0,0,1,1.687-.8,7.06,7.06,0,0,1,1.883-.26,8.74,8.74,0,0,1,2.11.25,5.227,5.227,0,0,1,1.8.81,4.087,4.087,0,0,1,1.246,1.43,4.459,4.459,0,0,1,.461,2.11H62.262a2.582,2.582,0,0,0-.265-1.06,1.765,1.765,0,0,0-.6-.66,2.514,2.514,0,0,0-.853-.34,5.207,5.207,0,0,0-1.05-.1,3.561,3.561,0,0,0-.745.08,1.983,1.983,0,0,0-.677.28,1.73,1.73,0,0,0-.5.5,1.36,1.36,0,0,0-.2.76,1.3,1.3,0,0,0,.157.68,1.4,1.4,0,0,0,.618.48,7.677,7.677,0,0,0,1.275.44q.814.22,2.129.56.393.079,1.089.29a5.171,5.171,0,0,1,1.383.67,4.221,4.221,0,0,1,1.187,1.23,3.548,3.548,0,0,1,.5,1.97,4.442,4.442,0,0,1-.373,1.82,3.94,3.94,0,0,1-1.109,1.45,5.287,5.287,0,0,1-1.824.95,8.5,8.5,0,0,1-2.521.339,8.665,8.665,0,0,1-2.247-.289,5.6,5.6,0,0,1-1.923-.91,4.459,4.459,0,0,1-1.324-1.58,4.8,4.8,0,0,1-.471-2.28h2.982A2.658,2.658,0,0,0,57.16,146.977Z" fill="#fff"/><path d="M78.192,150a6.588,6.588,0,0,1-3.394.819,7.068,7.068,0,0,1-2.894-.569,6.212,6.212,0,0,1-2.168-1.569,6.984,6.984,0,0,1-1.354-2.351,8.77,8.77,0,0,1-.47-2.91,9.079,9.079,0,0,1,.47-2.97,7.167,7.167,0,0,1,1.354-2.39,6.2,6.2,0,0,1,2.168-1.6,7.535,7.535,0,0,1,5.8,0,6.228,6.228,0,0,1,2.158,1.6,7.167,7.167,0,0,1,1.354,2.39,9.079,9.079,0,0,1,.471,2.97,8.675,8.675,0,0,1-.471,2.9,7.225,7.225,0,0,1-1.354,2.362l1.746,1.619-1.432,1.519Zm-.451-3.3a4.339,4.339,0,0,0,.628-1.34,6.941,6.941,0,0,0,.235-1.94,7.928,7.928,0,0,0-.206-1.82,4.864,4.864,0,0,0-.657-1.57,3.365,3.365,0,0,0-1.177-1.1,4.013,4.013,0,0,0-3.532,0,3.36,3.36,0,0,0-1.177,1.1,4.838,4.838,0,0,0-.657,1.567,7.943,7.943,0,0,0-.206,1.816,7.383,7.383,0,0,0,.206,1.746,4.742,4.742,0,0,0,.657,1.527,3.388,3.388,0,0,0,1.177,1.088,3.545,3.545,0,0,0,1.766.41,5.721,5.721,0,0,0,.746-.037,1.768,1.768,0,0,0,.49-.144l-1.314-1.22,1.432-1.56Z" fill="#fff"/><path d="M87.846,136.217v11.64h6.827v2.64H84.766v-14.28Z" fill="#fff"/></g><path d="M134,111a1,1,0,0,0-1,1v6a1,1,0,0,0,2,0v-6A1,1,0,0,0,134,111Z" fill="#99afb9"/><path d="M141,111a1,1,0,0,0-1,1v6a1,1,0,0,0,2,0v-6A1,1,0,0,0,141,111Z" fill="#99afb9"/><path d="M127,111a1,1,0,0,0-1,1v6a1,1,0,0,0,2,0v-6A1,1,0,0,0,127,111Z" fill="#99afb9"/><path d="M134,171a1,1,0,0,0-1,1v6a1,1,0,0,0,2,0v-6A1,1,0,0,0,134,171Z" fill="#99afb9"/><path d="M141,171a1,1,0,0,0-1,1v6a1,1,0,0,0,2,0v-6A1,1,0,0,0,141,171Z" fill="#99afb9"/><path d="M127,171a1,1,0,0,0-1,1v6a1,1,0,0,0,2,0v-6A1,1,0,0,0,127,171Z" fill="#99afb9"/><polygon points="238 145 226.333 156.667 226.333 148.333 218 148.333 218 141.667 226.333 141.667 226.333 133.333 238 145" fill="#d1dbe0"/></g></svg>